<?xml version="1.0" encoding="utf-8"?>
<!-- Generator: Adobe Illustrator 22.1.0, SVG Export Plug-In . SVG Version: 6.00 Build 0)  -->
<svg version="1.1" id="Calque_1" xmlns="http://www.w3.org/2000/svg" xmlns:xlink="http://www.w3.org/1999/xlink" x="0px" y="0px"
	 viewBox="0 0 1920 1920" style="enable-background:new 0 0 1920 1920;" xml:space="preserve">
<style type="text/css">
	.st0{display:none;}
	.st1{display:inline;}
</style>
<g id="Calque_2_1_" class="st0">
	<rect class="st1" width="1920" height="1920"/>
</g>
<g id="Calque_1_1_">
	<g>
		<g>
			<path d="M1873,878.9c0,84.1-3.6,323.4-3.9,334.7c-1.3,38-38.3,93.1-117.6,93.1H101c-13.7,0-24.8-11.1-24.8-24.8v-141.1
				c0-13.7,11.1-24.8,24.7-24.8l793-0.6c13.8,0,24.9-11.2,24.8-25l-0.9-102.3c-0.1-13.6-11.2-24.6-24.8-24.5l-792,0.6
				c-13.7,0-24.8-11.1-24.8-24.8V798.8c0-13.7,11.1-24.8,24.8-24.8h793.9c11.5,0,20.8-9.3,20.8-20.8V643.5
				c0-11.5-9.3-20.8-20.8-20.8H81.8C68.1,622.8,57,611.7,57,598V456c0-13.7,11.1-24.8,24.8-24.8H1831c13.7,0,24.8,11.1,24.8,24.8
				v142c0,13.7-11.1,24.8-24.8,24.8h-769.8c-0.9,0.1-1.8,0.2-2.7,0.2c-5.7,0-10.8,2.3-14.6,6c-3.8,3.7-6.1,8.9-6.1,14.6l-1.9,225.1
				c0,1-0.1,2-0.2,3v182.4c0,1.1,0.1,2.3,0.2,3.4c1.5,10.5,11.7,60.6,68.8,60.6c0,0,581.7-2.3,591.1-2.3c36.5,0,67.3-19.9,67.3-69.7
				c0-49.9-11.2-82-63-82c-27-0.5-395.9-1.2-395.9-1.2c-13.7,0-24.8-11.1-24.8-24.8V798.8c0-13.7,11.1-24.8,24.8-24.8h461.2
				C1831.3,774,1873,803.5,1873,878.9z"/>
		</g>
	</g>
</g>
</svg>
