<?xml version="1.0" encoding="utf-8"?>
<!-- Generator: Adobe Illustrator 25.0.0, SVG Export Plug-In . SVG Version: 6.00 Build 0)  -->
<svg version="1.1" id="Calque_1" xmlns="http://www.w3.org/2000/svg" xmlns:xlink="http://www.w3.org/1999/xlink" x="0px" y="0px"
	 viewBox="0 0 1000 1000" style="enable-background:new 0 0 1000 1000;" xml:space="preserve">
<style type="text/css">
	.st0{fill:#FFFFFF;}
</style>
<path class="st0" d="M887.85,798.48c-11.66,15.08-24.17,29.45-37.48,43.06l-0.01,0.01c-8.54,8.75-17.42,17.18-26.61,25.25
	c0,0,0,0.01-0.01,0.01c-8.35,3.3-18.09,5.19-28.49,5.19c-13.25,0-25.45-3.08-35.05-8.21c0,0-0.01,0-0.01-0.01
	c-2.55-2.09-5.46-4.03-8.67-5.78c-0.68-0.55-1.32-1.12-1.95-1.71c-0.23,0.11-0.47,0.23-0.7,0.35c-4.26-2.08-8.99-3.83-14.08-5.21
	c-8.15-2.2-17.22-3.43-26.79-3.43c-10.8,0-20.98,1.57-29.89,4.33c-0.01,0-0.02,0.01-0.03,0.01c-3.91,1.21-7.57,2.66-10.95,4.3
	c-1.13,0.55-2.23,1.12-3.29,1.71c-0.01,0.01-0.01,0.01-0.02,0.01h-0.01C619.7,875.61,562.71,886,500.5,886
	c-64.27,0-122.95-11.08-167.63-29.36v-0.01c-2.17-1.05-4.45-2.02-6.85-2.9c-0.02-0.01-0.03-0.01-0.05-0.02
	c-9.84-3.62-21.48-5.71-33.97-5.71c-9.25,0-18.04,1.15-25.98,3.22c-5.4,1.4-10.4,3.23-14.89,5.42c-0.25-0.13-0.51-0.26-0.76-0.38
	c-0.7,0.65-1.42,1.28-2.18,1.9c-3.01,1.66-5.75,3.49-8.18,5.46c-9.65,5.24-21.96,8.38-35.36,8.38c-10.32,0-20-1.87-28.31-5.12
	c-0.01,0-0.01-0.01-0.01-0.01c-9.27-8.14-18.22-16.64-26.83-25.46l-0.01-0.01c-13.7-14.02-26.56-28.84-38.51-44.42
	c9.23,9.4,24.86,16.73,43.8,20.32c8.3,1.58,17.24,2.44,26.56,2.44c21.97,0,41.86-4.77,56.24-12.49c0.84-0.45,1.66-0.91,2.46-1.38
	c0.12-0.1,0.23-0.19,0.35-0.29c2.08-1.65,4.38-3.2,6.89-4.64c0,0,0,0,0.01-0.01l7.39-3.63c10.5-4.42,23.39-7.03,37.32-7.03
	c12.51,0,24.17,2.1,34.02,5.73c2.24,0.99,4.53,1.96,6.85,2.9c5.1,2.1,10.39,4.09,15.85,5.98c42.31,14.69,94.86,23.39,151.78,23.39
	c56.58,0,108.83-8.59,151.01-23.12c4.21-1.44,8.31-2.95,12.31-4.52c0.01,0,0.01,0,0.02-0.01c4.91-1.91,9.66-3.92,14.24-6.01
	c8.92-2.77,19.11-4.34,29.92-4.34c14.29,0,27.48,2.74,38.13,7.38c2.25,0.98,4.39,2.04,6.4,3.18c0.41,0.34,0.84,0.66,1.27,0.98v0.01
	c1.76,1.32,3.66,2.58,5.68,3.78c0.18,0.12,0.37,0.23,0.56,0.33c0.68,0.56,1.33,1.12,1.96,1.71c0.14-0.13,0.28-0.25,0.41-0.38
	c14.42,7.71,34.37,12.48,56.4,12.48c9.24,0,18.11-0.84,26.35-2.38C863.27,813.98,878.39,807.21,887.85,798.48z"/>
<g>
	<path class="st0" d="M248.19,858.16c-2.44,2-5.18,3.83-8.18,5.46C242.44,861.65,245.18,859.82,248.19,858.16z"/>
</g>
<g>
	<path class="st0" d="M251.13,856.64c-1.01,0.49-1.99,0.99-2.94,1.52c0.76-0.62,1.48-1.25,2.18-1.9
		C250.62,856.38,250.88,856.51,251.13,856.64z"/>
</g>
<g>
	<path class="st0" d="M332.87,894.63c-2.32-0.94-4.61-1.91-6.85-2.9C328.42,892.61,330.7,893.58,332.87,894.63z"/>
</g>
<g>
	<path class="st0" d="M332.87,856.63c-2.32-0.94-4.61-1.91-6.85-2.9C328.42,854.61,330.7,855.58,332.87,856.63z"/>
</g>
<g>
	<path class="st0" d="M678.08,890.34c-4.58,2.09-9.33,4.1-14.24,6.01C668.07,893.99,672.86,891.96,678.08,890.34z"/>
</g>
<g>
	<path class="st0" d="M678.08,852.34c-3.4,1.56-6.9,3.06-10.49,4.51c-1.24,0.51-2.49,1.01-3.75,1.5c1.06-0.59,2.16-1.16,3.29-1.71
		C670.51,855,674.17,853.55,678.08,852.34z"/>
</g>
<g>
	<path class="st0" d="M751.52,858c-0.86-0.47-1.75-0.92-2.65-1.36c0.23-0.12,0.47-0.24,0.7-0.35
		C750.2,856.88,750.84,857.45,751.52,858z"/>
</g>
<g>
	<path class="st0" d="M760.19,863.78c-3.2-1.71-6.11-3.65-8.67-5.78C754.73,859.75,757.64,861.69,760.19,863.78z"/>
</g>
<g>
	<path class="st0" d="M332.82,758.61c-2.28-0.93-4.54-1.88-6.74-2.85C328.44,756.62,330.68,757.58,332.82,758.61z"/>
</g>
<g>
	<path class="st0" d="M332.87,798.9c-2.32-0.94-4.61-1.91-6.85-2.9C328.42,796.88,330.7,797.85,332.87,798.9z"/>
</g>
<g>
	<path class="st0" d="M336.81,760.22c-0.16,0.08-0.32,0.15-0.48,0.23c0,0,0,0-0.01,0c-1.11-0.63-2.26-1.23-3.45-1.82
		C334.17,759.17,335.48,759.7,336.81,760.22z"/>
</g>
<g>
	<path class="st0" d="M663.82,760.36c-0.23,0.13-0.45,0.26-0.67,0.39c-0.05-0.03-0.1-0.05-0.15-0.07
		C663.27,760.58,663.55,760.47,663.82,760.36z"/>
</g>
<g>
	<path class="st0" d="M678.04,754.36c-4.57,2.08-9.3,4.09-14.2,5.99C668.06,757.99,672.84,755.97,678.04,754.36z"/>
</g>
<g>
	<path class="st0" d="M678.08,794.61c-4.58,2.09-9.33,4.1-14.24,6.01C668.07,798.26,672.86,796.23,678.08,794.61z"/>
</g>
<g>
	<path class="st0" d="M752.53,800.83c-2.01-1.14-4.15-2.2-6.4-3.18c0.34-0.61,0.67-1.23,0.98-1.85
		C748.7,797.55,750.52,799.23,752.53,800.83z"/>
</g>
<g>
	<path class="st0" d="M761.66,767.06c-2.82-1.23-5.47-2.54-7.93-3.92c-0.69-0.38-1.36-0.77-2.02-1.17
		c-1.68-1.01-3.26-2.05-4.74-3.13c-1.07-0.78-2.09-1.58-3.05-2.39c1.29,0.52,2.54,1.06,3.76,1.62c2.05,0.95,3.99,1.98,5.83,3.06
		c0.03,0.02,0.06,0.04,0.09,0.06C756.61,762.97,759.32,764.94,761.66,767.06z"/>
</g>
<g>
	<path class="st0" d="M760.04,805.93c-0.19-0.1-0.38-0.21-0.56-0.33c-2.02-1.2-3.92-2.46-5.68-3.78v-0.01
		c-0.43-0.32-0.86-0.64-1.27-0.98c0.42,0.24,0.83,0.48,1.24,0.72v0.01c2.09,1.25,4.03,2.58,5.8,3.99
		C759.73,805.68,759.88,805.81,760.04,805.93z"/>
</g>
<g>
	<path class="st0" d="M762.41,807.26c-0.13,0.13-0.27,0.25-0.41,0.38c-0.63-0.59-1.28-1.15-1.96-1.71
		C760.81,806.39,761.6,806.83,762.41,807.26z"/>
</g>
<path class="st0" d="M254.81,699.54c-1.25,0.38-2.48,0.78-3.68,1.2"/>
<g>
	<path class="st0" d="M332.82,758.61c-2.28-0.93-4.54-1.88-6.74-2.85C328.44,756.62,330.68,757.58,332.82,758.61z"/>
</g>
<g>
	<path class="st0" d="M332.87,798.9c-2.32-0.94-4.61-1.91-6.85-2.9C328.42,796.88,330.7,797.85,332.87,798.9z"/>
</g>
<g>
	<path class="st0" d="M336.81,760.22c-0.16,0.08-0.32,0.15-0.48,0.23c0,0,0,0-0.01,0c-1.11-0.63-2.26-1.23-3.45-1.82
		C334.17,759.17,335.48,759.7,336.81,760.22z"/>
</g>
<g>
	<path class="st0" d="M663.82,760.36c-0.23,0.13-0.45,0.26-0.67,0.39c-0.05-0.03-0.1-0.05-0.15-0.07
		C663.27,760.58,663.55,760.47,663.82,760.36z"/>
</g>
<g>
	<path class="st0" d="M678.04,754.36c-4.57,2.08-9.3,4.09-14.2,5.99C668.06,757.99,672.84,755.97,678.04,754.36z"/>
</g>
<g>
	<path class="st0" d="M678.08,794.61c-4.58,2.09-9.33,4.1-14.24,6.01C668.07,798.26,672.86,796.23,678.08,794.61z"/>
</g>
<g>
	<path class="st0" d="M752.53,800.83c-2.01-1.14-4.15-2.2-6.4-3.18c0.34-0.61,0.67-1.23,0.98-1.85
		C748.7,797.55,750.52,799.23,752.53,800.83z"/>
</g>
<g>
	<path class="st0" d="M753.8,801.81c-0.43-0.32-0.86-0.64-1.27-0.98c0.42,0.24,0.83,0.48,1.24,0.72v0.01
		C753.79,801.64,753.79,801.73,753.8,801.81z"/>
</g>
<g>
	<path class="st0" d="M332.87,894.63c-2.32-0.94-4.61-1.91-6.85-2.9C328.42,892.61,330.7,893.58,332.87,894.63z"/>
</g>
<g>
	<path class="st0" d="M332.87,856.63c-2.32-0.94-4.61-1.91-6.85-2.9C328.42,854.61,330.7,855.58,332.87,856.63z"/>
</g>
<g>
	<path class="st0" d="M678.08,890.34c-4.58,2.09-9.33,4.1-14.24,6.01C668.07,893.99,672.86,891.96,678.08,890.34z"/>
</g>
<g>
	<path class="st0" d="M678.08,852.34c-3.4,1.56-6.9,3.06-10.49,4.51c-1.24,0.51-2.49,1.01-3.75,1.5c1.06-0.59,2.16-1.16,3.29-1.71
		C670.51,855,674.17,853.55,678.08,852.34z"/>
</g>
<g>
	<path class="st0" d="M678.08,890.34c-4.58,2.09-9.33,4.1-14.24,6.01C668.07,893.99,672.86,891.96,678.08,890.34z"/>
</g>
<g>
	<path class="st0" d="M332.87,894.63c-2.32-0.94-4.61-1.91-6.85-2.9C328.42,892.61,330.7,893.58,332.87,894.63z"/>
</g>
<g>
	<path class="st0" d="M332.87,856.63c-2.32-0.94-4.61-1.91-6.85-2.9C328.42,854.61,330.7,855.58,332.87,856.63z"/>
</g>
<g>
	<path class="st0" d="M678.08,852.34c-3.4,1.56-6.9,3.06-10.49,4.51c-1.24,0.51-2.49,1.01-3.75,1.5c1.06-0.59,2.16-1.16,3.29-1.71
		C670.51,855,674.17,853.55,678.08,852.34z"/>
</g>
<g>
	<path class="st0" d="M332.82,758.61c-2.28-0.93-4.54-1.88-6.74-2.85C328.44,756.62,330.68,757.58,332.82,758.61z"/>
</g>
<g>
	<path class="st0" d="M332.87,798.9c-2.32-0.94-4.61-1.91-6.85-2.9C328.42,796.88,330.7,797.85,332.87,798.9z"/>
</g>
<g>
	<path class="st0" d="M336.81,760.22c-0.16,0.08-0.32,0.15-0.48,0.23c0,0,0,0-0.01,0c-1.11-0.63-2.26-1.23-3.45-1.82
		C334.17,759.17,335.48,759.7,336.81,760.22z"/>
</g>
<g>
	<path class="st0" d="M663.82,760.36c-0.23,0.13-0.45,0.26-0.67,0.39c-0.05-0.03-0.1-0.05-0.15-0.07
		C663.27,760.58,663.55,760.47,663.82,760.36z"/>
</g>
<g>
	<path class="st0" d="M678.04,754.36c-4.57,2.08-9.3,4.09-14.2,5.99C668.06,757.99,672.84,755.97,678.04,754.36z"/>
</g>
<g>
	<path class="st0" d="M678.08,794.61c-4.58,2.09-9.33,4.1-14.24,6.01C668.07,798.26,672.86,796.23,678.08,794.61z"/>
</g>
<g>
	<path class="st0" d="M753.73,763.14c-0.69-0.38-1.36-0.77-2.02-1.17c-1.68-1.01-3.26-2.05-4.74-3.13
		c-1.07-0.78-2.09-1.58-3.05-2.39c1.29,0.52,2.54,1.06,3.76,1.62c2.05,0.95,3.99,1.98,5.83,3.06c0,0.03,0.01,0.06,0.01,0.09
		C753.61,761.86,753.68,762.5,753.73,763.14z"/>
</g>
<g>
	<path class="st0" d="M767.47,909.62c-28.37,18.53-58.79,34.19-90.83,46.57C621.84,977.38,562.28,989,500,989
		s-121.84-11.62-176.64-32.81c-32.04-12.38-62.46-28.04-90.83-46.57c1.2-1.78,2.64-3.49,4.28-5.12C247.93,893.43,268.48,886,292,886
		c12.51,0,24.17,2.1,34.02,5.73c2.24,0.99,4.53,1.96,6.85,2.9c5.56,2.29,11.35,4.45,17.33,6.49C392.25,915.51,444.24,924,500.5,924
		c55.91,0,107.6-8.39,149.51-22.61c4.73-1.6,9.34-3.28,13.81-5.03c0.01,0,0.01,0,0.02-0.01c4.91-1.91,9.66-3.92,14.24-6.01
		C687,887.57,697.19,886,708,886c23.52,0,44.07,7.43,55.19,18.5C764.83,906.13,766.27,907.84,767.47,909.62z"/>
</g>
<g>
	<path class="st0" d="M678.08,890.34c-4.58,2.09-9.33,4.1-14.24,6.01C668.07,893.99,672.86,891.96,678.08,890.34z"/>
</g>
<g>
	<path class="st0" d="M678.08,852.34c-3.4,1.56-6.9,3.06-10.49,4.51c-1.24,0.51-2.49,1.01-3.75,1.5c1.06-0.59,2.16-1.16,3.29-1.71
		C670.51,855,674.17,853.55,678.08,852.34z"/>
</g>
<g>
	<path class="st0" d="M760.19,863.78c-3.2-1.71-6.11-3.65-8.67-5.78C754.73,859.75,757.64,861.69,760.19,863.78z"/>
</g>
<g>
	<path class="st0" d="M760.19,863.78c-3.2-1.71-6.11-3.65-8.67-5.78C754.73,859.75,757.64,861.69,760.19,863.78z"/>
</g>
<path class="st0" d="M850.36,841.55c-8.54,8.75-17.42,17.18-26.61,25.25"/>
<g>
	<path class="st0" d="M760.04,805.93c-0.19-0.1-0.38-0.21-0.56-0.33c0.03-0.02,0.06-0.03,0.09-0.05
		C759.73,805.68,759.88,805.81,760.04,805.93z"/>
</g>
<g>
	<path class="st0" d="M762.41,807.26c-0.13,0.13-0.27,0.25-0.41,0.38c-0.63-0.59-1.28-1.15-1.96-1.71
		C760.81,806.39,761.6,806.83,762.41,807.26z"/>
</g>
<path class="st0" d="M176.33,866.87c-9.27-8.14-18.22-16.64-26.83-25.46"/>
<g>
	<path class="st0" d="M248.19,858.16c-2.44,2-5.18,3.83-8.18,5.46C242.44,861.65,245.18,859.82,248.19,858.16z"/>
</g>
<g>
	<path class="st0" d="M761.66,767.06c-2.82-1.23-5.47-2.54-7.93-3.92c-0.69-0.38-1.36-0.77-2.02-1.17
		c-1.68-1.01-3.26-2.05-4.74-3.13c0.22-0.26,0.46-0.52,0.71-0.77c2.05,0.95,3.99,1.98,5.83,3.06c0.03,0.02,0.06,0.04,0.09,0.06
		C756.61,762.97,759.32,764.94,761.66,767.06z"/>
</g>
<g>
	<path class="st0" d="M760.04,805.93c-0.19-0.1-0.38-0.21-0.56-0.33c-2.02-1.2-3.92-2.46-5.68-3.78v-0.01
		c-0.43-0.32-0.86-0.64-1.27-0.98c0.42,0.24,0.83,0.48,1.24,0.72v0.01c2.09,1.25,4.03,2.58,5.8,3.99
		C759.73,805.68,759.88,805.81,760.04,805.93z"/>
</g>
<g>
	<path class="st0" d="M896.24,787.31c-1.8,3.96-4.64,7.71-8.37,11.14C890.72,794.78,893.51,791.06,896.24,787.31z"/>
</g>
<g>
	<path class="st0" d="M110.94,796.93c-2.49-2.53-4.5-5.21-5.99-8C106.91,791.62,108.91,794.29,110.94,796.93z"/>
</g>
<g>
	<path class="st0" d="M248.19,858.16c-2.44,2-5.18,3.83-8.18,5.46C242.44,861.65,245.18,859.82,248.19,858.16z"/>
</g>
<g>
	<path class="st0" d="M332.87,894.63c-2.32-0.94-4.61-1.91-6.85-2.9C328.42,892.61,330.7,893.58,332.87,894.63z"/>
</g>
<g>
	<path class="st0" d="M332.87,856.63c-2.32-0.94-4.61-1.91-6.85-2.9C328.42,854.61,330.7,855.58,332.87,856.63z"/>
</g>
<g>
	<path class="st0" d="M332.82,758.61c-2.28-0.93-4.54-1.88-6.74-2.85C328.44,756.62,330.68,757.58,332.82,758.61z"/>
</g>
<g>
	<path class="st0" d="M332.87,798.9c-2.32-0.94-4.61-1.91-6.85-2.9C328.42,796.88,330.7,797.85,332.87,798.9z"/>
</g>
<g>
	<path class="st0" d="M336.81,760.22c-0.16,0.08-0.32,0.15-0.48,0.23c0,0,0,0-0.01,0c-1.11-0.63-2.26-1.23-3.45-1.82
		C334.17,759.17,335.48,759.7,336.81,760.22z"/>
</g>
<g>
	<path class="st0" d="M663.82,760.36c-0.23,0.13-0.45,0.26-0.67,0.39c-0.05-0.03-0.1-0.05-0.15-0.07
		C663.27,760.58,663.55,760.47,663.82,760.36z"/>
</g>
<g>
	<path class="st0" d="M678.04,754.36c-4.57,2.08-9.3,4.09-14.2,5.99C668.06,757.99,672.84,755.97,678.04,754.36z"/>
</g>
<g>
	<path class="st0" d="M678.08,794.61c-4.58,2.09-9.33,4.1-14.24,6.01C668.07,798.26,672.86,796.23,678.08,794.61z"/>
</g>
<path class="st0" d="M254.81,699.54c-1.25,0.38-2.48,0.78-3.68,1.2"/>
<g>
	<path class="st0" d="M678.08,794.61c-4.58,2.09-9.33,4.1-14.24,6.01C668.07,798.26,672.86,796.23,678.08,794.61z"/>
</g>
<g>
	<path class="st0" d="M678.08,852.34c-3.4,1.56-6.9,3.06-10.49,4.51c-0.15-0.07-0.31-0.14-0.46-0.21
		C670.51,855,674.17,853.55,678.08,852.34z"/>
</g>
<g>
	<path class="st0" d="M760.04,805.93c-0.19-0.1-0.38-0.21-0.56-0.33c-2.02-1.2-3.92-2.46-5.68-3.78v-0.01
		c-0.43-0.32-0.86-0.64-1.27-0.98c0.42,0.24,0.83,0.48,1.24,0.72v0.01c2.09,1.25,4.03,2.58,5.8,3.99
		C759.73,805.68,759.88,805.81,760.04,805.93z"/>
</g>
<g>
	<path class="st0" d="M332.87,798.9c-2.32-0.94-4.61-1.91-6.85-2.9C328.42,796.88,330.7,797.85,332.87,798.9z"/>
</g>
<g>
	<path class="st0" d="M332.87,856.63c-2.32-0.94-4.61-1.91-6.85-2.9C328.42,854.61,330.7,855.58,332.87,856.63z"/>
</g>
<g>
	<path class="st0" d="M761.66,767.06c-2.82-1.23-5.47-2.54-7.93-3.92c-0.69-0.38-1.36-0.77-2.02-1.17
		c-1.68-1.01-3.26-2.05-4.74-3.13c-1.07-0.78-2.09-1.58-3.05-2.39c1.29,0.52,2.54,1.06,3.76,1.62c2.05,0.95,3.99,1.98,5.83,3.06
		c0.03,0.02,0.06,0.04,0.09,0.06C756.61,762.97,759.32,764.94,761.66,767.06z"/>
</g>
<path class="st0" d="M927.08,739.37c-3.05,5.42-6.2,10.78-9.47,16.07"/>
<path class="st0" d="M83.6,757.4c-4.18-6.71-8.19-13.53-12.04-20.45"/>
<g>
	<path class="st0" d="M332.82,758.61c-2.28-0.93-4.54-1.88-6.74-2.85C328.44,756.62,330.68,757.58,332.82,758.61z"/>
</g>
<g>
	<path class="st0" d="M678.04,754.36c-4.57,2.08-9.3,4.09-14.2,5.99C668.06,757.99,672.84,755.97,678.04,754.36z"/>
</g>
<g>
	<path class="st0" d="M678.04,754.36c-4.57,2.08-9.3,4.09-14.2,5.99C668.06,757.99,672.84,755.97,678.04,754.36z"/>
</g>
<g>
	<path class="st0" d="M678.08,794.61c-4.58,2.09-9.33,4.1-14.24,6.01C668.07,798.26,672.86,796.23,678.08,794.61z"/>
</g>
<g>
	<path class="st0" d="M752.53,800.83c-2.01-1.14-4.15-2.2-6.4-3.18c0.34-0.61,0.67-1.23,0.98-1.85
		C748.7,797.55,750.52,799.23,752.53,800.83z"/>
</g>
<g>
	<path class="st0" d="M761.66,767.06c-2.82-1.23-5.47-2.54-7.93-3.92c-0.69-0.38-1.36-0.77-2.02-1.17
		c-1.68-1.01-3.26-2.05-4.74-3.13c-1.07-0.78-2.09-1.58-3.05-2.39c1.29,0.52,2.54,1.06,3.76,1.62c2.05,0.95,3.99,1.98,5.83,3.06
		c0.03,0.02,0.06,0.04,0.09,0.06C756.61,762.97,759.32,764.94,761.66,767.06z"/>
</g>
<g>
	<path class="st0" d="M760.04,805.93c-0.19-0.1-0.38-0.21-0.56-0.33c-2.02-1.2-3.92-2.46-5.68-3.78v-0.01
		c-0.43-0.32-0.86-0.64-1.27-0.98c0.42,0.24,0.83,0.48,1.24,0.72v0.01c2.09,1.25,4.03,2.58,5.8,3.99
		C759.73,805.68,759.88,805.81,760.04,805.93z"/>
</g>
<g>
	<path class="st0" d="M762.41,807.26c-0.13,0.13-0.27,0.25-0.41,0.38c-0.63-0.59-1.28-1.15-1.96-1.71
		C760.81,806.39,761.6,806.83,762.41,807.26z"/>
</g>
<g>
	<path class="st0" d="M332.82,758.61c-2.28-0.93-4.54-1.88-6.74-2.85C328.44,756.62,330.68,757.58,332.82,758.61z"/>
</g>
<g>
	<path class="st0" d="M332.87,798.9c-2.32-0.94-4.61-1.91-6.85-2.9C328.42,796.88,330.7,797.85,332.87,798.9z"/>
</g>
<g>
	<path class="st0" d="M663.82,760.36c-0.23,0.13-0.45,0.26-0.67,0.39c-0.05-0.03-0.1-0.05-0.15-0.07
		C663.27,760.58,663.55,760.47,663.82,760.36z"/>
</g>
<g>
	<path class="st0" d="M678.04,754.36c-4.57,2.08-9.3,4.09-14.2,5.99C668.06,757.99,672.84,755.97,678.04,754.36z"/>
</g>
<g>
	<path class="st0" d="M753.6,761.19c-0.03,0.01-0.05,0.02-0.08,0.03c-0.59,0.26-1.2,0.51-1.81,0.75c-1.68-1.01-3.26-2.05-4.74-3.13
		c-1.07-0.78-2.09-1.58-3.05-2.39c1.29,0.52,2.54,1.06,3.76,1.62c2.05,0.95,3.99,1.98,5.83,3.06
		C753.54,761.15,753.57,761.17,753.6,761.19z"/>
</g>
<g>
	<path class="st0" d="M332.82,758.61c-2.28-0.93-4.54-1.88-6.74-2.85C328.44,756.62,330.68,757.58,332.82,758.61z"/>
</g>
<g>
	<path class="st0" d="M336.81,760.22c-0.16,0.08-0.32,0.15-0.48,0.23c0,0,0,0-0.01,0c-1.11-0.63-2.26-1.23-3.45-1.82
		C334.17,759.17,335.48,759.7,336.81,760.22z"/>
</g>
<path class="st0" d="M949.47,691.29l-22.39,48.08l-9.47,16.07c0,0-0.01,0.01-0.01,0.02c-5.22,4.72-12.37,8.96-21.01,12.5
	c-17.37,7.14-40.72,11.51-66.4,11.51c-26.74,0-50.97-4.74-68.53-12.41c-2.34-2.12-5.05-4.09-8.06-5.87
	c-0.03-0.02-0.06-0.04-0.09-0.06c-1.84-1.08-3.78-2.11-5.83-3.06c-1.22-0.56-2.47-1.1-3.76-1.62h-0.01
	c-2.4-0.95-4.91-1.81-7.53-2.57c-3.84-1.12-7.91-2.01-12.15-2.66h-0.01c-5.18-0.8-10.62-1.22-16.22-1.22
	c-10.81,0-21,1.57-29.92,4.34c-0.01,0.01-0.03,0.01-0.04,0.02c-5.2,1.61-9.98,3.63-14.2,5.99c-0.01,0.01-0.01,0.01-0.02,0.01
	c-0.27,0.11-0.55,0.22-0.82,0.32C619,777.74,562.33,788,500.5,788c-62.4,0-119.53-10.45-163.69-27.78
	c-1.33-0.52-2.64-1.05-3.94-1.59c-0.02,0-0.04-0.01-0.05-0.02c-2.14-1.03-4.38-1.99-6.74-2.85c-0.02-0.01-0.04-0.02-0.06-0.03
	C316.17,752.1,304.51,750,292,750c-5.18,0-10.21,0.36-15.03,1.04c-4.38,0.62-8.58,1.5-12.55,2.61c-2.66,0.75-5.21,1.59-7.65,2.54
	c-1.13,0.96-2.35,1.91-3.64,2.84c-1.55,1.1-3.21,2.17-4.97,3.21c-0.28,0.16-0.57,0.33-0.86,0.49c-2.81,1.6-5.87,3.11-9.17,4.51
	l-0.01,0.01c-17.67,7.56-41.92,12.22-68.68,12.22c-25.34,0-48.44-4.19-65.82-11.04c-7.99-3.16-14.78-6.88-20.02-11.03l-12.04-20.45
	c-8.3-14.9-15.84-30.28-22.57-46.09c5.41,9.46,18.85,17.73,37.36,23.63c18.62,5.95,42.38,9.52,68.25,9.52
	c29.6,0,56.43-4.67,75.97-12.24c2.21-1.82,4.71-3.53,7.47-5.12c2.93-1.69,6.16-3.24,9.65-4.62v-0.01c1.12-0.44,2.27-0.87,3.44-1.28
	l3.68-1.2c10.39-3.18,22.45-5,35.31-5c4.23,0,8.37,0.2,12.4,0.58c7.07,0.66,13.77,1.87,19.95,3.56c7.78,2.12,14.72,4.99,20.49,8.42
	h0.01c3.43,1.27,6.94,2.49,10.51,3.67c41.46,13.71,92.21,21.77,147.02,21.77s105.56-8.06,147.02-21.77l6.53-2.58
	c7.17-4.6,16.38-8.27,26.91-10.64c0-0.01,0.01-0.01,0.02-0.01c5.42-1.22,11.2-2.1,17.22-2.58c3.48-0.28,7.05-0.42,10.68-0.42
	c13.57,0,26.25,2.01,37.04,5.49c0.98,0.31,1.95,0.64,2.9,0.98l4.8,3.29c1.9,1.19,3.95,2.33,6.14,3.43c2.7,1.35,5.61,2.65,8.71,3.86
	c19.49,7.67,46.4,12.42,76.11,12.42c25.78,0,49.44-3.57,67.98-9.53C930.69,708.66,943.92,700.56,949.47,691.29z"/>
<path class="st0" d="M83.6,757.4c-4.18-6.71-8.19-13.53-12.04-20.45L83.6,757.4z"/>
<path class="st0" d="M917.61,755.44l9.47-16.07C924.03,744.79,920.88,750.15,917.61,755.44z"/>
<path class="st0" d="M951.39,687.16c-0.47,1.4-1.11,2.77-1.91,4.11L951.39,687.16z"/>
<path class="st0" d="M47.01,686.14c0.64,1.56,1.29,3.12,1.96,4.67C48.1,689.28,47.44,687.72,47.01,686.14z"/>
<polyline class="st0" points="305.63,587.59 305.63,544.6 305.63,526.13 "/>
<polygon class="st0" points="305.83,544.66 305.63,587.59 305.63,544.6 "/>
<path class="st0" d="M977.62,608.9c-4.82,21.09-11.02,41.65-18.47,61.6H40.85c-7.45-19.95-13.65-40.51-18.47-61.6h156.04v-56.59
	l-61.76-19.46l-26.83-8.46c-0.02,0-0.04-0.01-0.06-0.02c-28.13-7.18-48.92-32.69-48.92-63.05c0-24.99,14.08-46.68,34.73-57.58
	c0-0.01,0-0.01,0-0.01c-5.98-9.84-9.42-21.39-9.42-33.74c0-35.95,29.14-65.09,65.09-65.09c0.82,0,1.64,0.02,2.45,0.05
	c-1.59-5.65-2.45-11.6-2.45-17.76c0-35.95,29.14-65.09,65.08-65.09c35.95,0,65.09,29.14,65.09,65.09c0,6.22-0.87,12.24-2.51,17.94
	c3.54,0.29,6.99,0.87,10.34,1.72v230.32l-45.23,12.76v58.97h81.61v-21.31l0.2-42.93l0.08-18.55c-0.09,0.01-0.19,0.02-0.28,0.02
	V121.86l32.48-10.02V608.9h16.24V106.83l32.47-10.02V608.9h16.24V91.8l32.48-10.02V608.9h16.24V76.77l32.48-10.02V608.9h16.24V61.74
	l32.48-10.02V608.9h16.24V48.07l32.48,18.76l16.24,9.37l32.47,18.75l16.24,9.38l32.48,18.75l16.24,9.37V608.9h82.79v-58.96
	l-45.23-12.76V306.84c3.35-0.84,6.8-1.42,10.34-1.71c-1.64-5.7-2.51-11.72-2.51-17.94c0-35.95,29.14-65.09,65.08-65.09
	c35.95,0,65.09,29.14,65.09,65.09c0,6.16-0.86,12.11-2.45,17.76c0.81-0.03,1.63-0.05,2.45-0.05c35.94,0,65.08,29.14,65.08,65.09
	c0,12.35-3.44,23.9-9.42,33.74c0,0,0,0,0,0.01c20.66,10.9,34.73,32.59,34.73,57.58c0,30.36-20.79,55.87-48.91,63.05l-26.9,8.48
	l-61.76,19.46v56.59H977.62z"/>
<polyline class="st0" points="305.63,587.59 305.63,544.6 305.63,526.13 "/>
</svg>
